<svg width="46" height="46" viewBox="0 0 46 46" fill="none" xmlns="http://www.w3.org/2000/svg">
<rect x="0.5" y="0.5" width="45" height="45" fill="black" stroke="black"/>
<path d="M15 26L15 39.8125H19V27.5L15 26Z" fill="black" stroke="white"/>
<path d="M37 40V30.625H33.1964V40H37Z" fill="white" stroke="white"/>
<path d="M27.5 24.5L20.8514 22.1334L17.2838 23.0667C17.2838 23.0667 15 23.5334 15 24.0001C15 24.4667 15.5 24.5001 16.1892 24.8001L19.5 26.0001C20.3378 25.1069 21.6336 25.7006 22.5 26C26.2973 27.3125 32.4054 29.1735 33 30.1068H37C37 27 31.6622 25.9 27.5 24.5Z" fill="white" stroke="white"/>
<path d="M13.3524 6V17.6707C13.3524 19.1997 13.7876 19.7094 17.2694 18.7851C20.7513 17.8609 29 15 31.5 13.5C32.2148 13.0711 33 12.5 33 11V6H34.5H37L37 11C37 13.8438 36 14.5 35 15C34 15.5 19.9792 20.8983 16.1088 21.7481C15.6907 21.8399 14.3679 22.2578 14.3679 22.2578C14.3679 22.2578 13 22.971 13 24.5C11.9187 25.2233 10.1843 25.6596 9.72541 23.6653C9.00002 20.5128 9.00001 20.3353 9.00001 18.7851V6H13.3524Z" fill="white" stroke="white"/>
<path d="M13 23.2931L9 21V40H13V23.2931Z" fill="white" stroke="white"/>
</svg>
